<svg xmlns="http://www.w3.org/2000/svg" viewBox="0 0 100 138.89">
  <!-- Embedded new icon -->
  <svg x="8" y="91" width="22" height="22" viewBox="0 0 1024 1024">
    <g opacity="0.35">
      <path d="M 529.42 822.58 C525.28,820.78 522.00,816.41 522.00,812.70 C522.00,811.04 523.56,802.66 525.47,794.09 C531.40,767.45 538.00,724.46 538.00,712.44 C538.00,708.95 537.88,708.81 535.25,709.49 C517.32,714.13 485.16,716.26 466.00,714.08 C428.48,709.81 395.84,696.19 370.44,674.21 C361.26,666.25 351.64,654.22 350.21,648.87 C348.08,640.97 351.15,636.79 362.57,632.03 C386.14,622.23 420.06,617.84 445.00,621.39 C467.41,624.58 490.92,633.97 509.31,647.08 C519.26,654.17 533.59,668.06 537.74,674.62 C539.26,677.03 540.89,679.00 541.37,679.00 C543.01,679.00 540.27,615.45 537.46,588.00 C535.18,565.79 528.57,521.91 527.11,519.25 C526.67,518.46 524.82,520.45 522.00,524.75 C499.20,559.55 448.19,578.14 410.27,565.46 C384.35,556.80 365.68,536.62 360.58,511.79 C355.38,486.42 363.41,462.23 383.63,442.36 L 390.90 435.22 L 384.20 434.51 C352.74,431.16 325.44,418.63 306.39,398.78 C297.63,389.66 292.48,381.43 288.30,369.87 C285.84,363.09 285.63,361.26 285.61,347.00 C285.59,332.98 285.84,330.77 288.16,323.83 C300.99,285.60 338.95,263.45 383.94,267.95 C398.42,269.40 416.77,274.45 421.91,278.41 C423.64,279.74 423.40,278.59 419.10,264.73 C408.66,231.11 412.01,198.12 428.52,171.97 C432.65,165.43 442.91,155.22 450.25,150.34 C479.56,130.85 519.38,137.20 545.95,165.61 C566.41,187.48 577.25,216.45 578.70,253.17 L 579.28 267.83 L 583.73 262.38 C589.96,254.73 603.79,242.82 615.00,235.45 C646.03,215.05 682.89,211.23 707.10,225.92 C719.25,233.29 729.39,246.04 733.91,259.66 C740.38,279.12 738.15,306.17 728.09,330.10 C718.66,352.54 695.34,376.06 671.22,387.43 C665.32,390.22 663.41,392.00 666.32,392.00 C667.05,392.00 671.66,393.96 676.57,396.36 C705.69,410.60 724.00,437.28 724.00,465.49 C724.00,500.25 700.42,530.06 664.75,540.40 C639.12,547.83 613.16,545.44 588.66,533.39 C577.00,527.66 568.51,521.51 557.25,510.64 C552.16,505.73 548.00,502.11 548.00,502.60 C548.00,503.10 549.32,510.96 550.92,520.07 C558.69,564.12 563.21,608.08 564.28,650.00 L 564.50 658.50 L 567.15 654.00 C572.77,644.47 585.35,628.82 595.68,618.53 C622.76,591.55 650.67,576.81 683.90,571.95 C696.24,570.15 723.22,571.22 733.41,573.91 C743.56,576.59 747.06,578.66 749.37,583.35 C751.21,587.09 751.20,587.23 749.06,593.77 C745.45,604.75 736.38,622.77 728.56,634.47 C702.10,674.04 666.51,698.09 621.00,707.13 C610.98,709.12 606.56,709.41 586.73,709.36 C564.40,709.31 563.95,709.35 563.53,711.41 C563.29,712.56 562.60,718.90 561.98,725.50 C559.45,752.74 549.87,806.97 546.06,815.59 C544.09,820.05 538.78,824.02 534.88,823.96 C533.57,823.94 531.11,823.32 529.42,822.58 ZM 508.03 690.96 C517.85,689.76 520.00,689.22 520.00,687.94 C520.00,685.83 502.89,670.00 495.00,664.81 C480.34,655.17 468.81,650.10 452.00,645.92 C443.75,643.86 440.07,643.55 424.00,643.53 C412.39,643.52 403.27,644.01 399.50,644.83 C386.13,647.76 377.93,650.28 378.27,651.37 C378.99,653.61 395.35,665.84 404.82,671.23 C421.76,680.86 444.43,688.47 463.16,690.82 C473.50,692.12 497.97,692.19 508.03,690.96 ZM 606.03 685.97 C647.43,680.93 684.35,658.24 707.72,623.47 C712.79,615.93 722.00,598.17 722.00,595.93 C722.00,593.72 717.46,593.02 703.50,593.05 C690.40,593.07 680.75,594.66 668.29,598.85 C633.09,610.66 600.91,639.09 581.27,675.73 C578.39,681.11 576.02,685.84 576.02,686.25 C575.99,687.35 596.21,687.16 606.03,685.97 ZM 455.14 544.03 C487.09,536.02 512.29,509.67 519.50,476.75 C521.80,466.26 524.23,462.85 530.54,461.21 C536.03,459.79 542.33,460.34 545.68,462.53 C546.88,463.31 550.66,468.04 554.08,473.04 C570.03,496.32 590.04,511.87 612.71,518.59 C624.14,521.98 641.21,522.89 651.63,520.68 C681.59,514.30 701.46,492.67 701.41,466.50 C701.38,450.22 693.83,435.90 678.90,423.83 C666.40,413.73 649.73,406.77 629.24,403.08 C623.05,401.97 617.11,400.59 616.04,400.02 C611.31,397.49 609.50,390.59 612.46,386.36 C614.31,383.72 616.99,382.68 630.00,379.55 C649.70,374.80 664.04,368.19 678.58,357.16 C701.62,339.68 715.00,313.17 715.00,285.03 C715.00,265.02 706.79,250.45 691.20,242.78 C684.71,239.59 684.21,239.50 672.02,239.57 C661.16,239.64 658.38,240.01 651.00,242.43 C627.04,250.26 606.70,266.18 583.22,295.49 C571.03,310.69 566.44,313.35 558.98,309.49 C553.69,306.75 552.76,302.09 554.93,289.00 C556.81,277.65 557.36,257.18 556.08,246.00 C551.19,203.04 530.55,171.75 501.63,163.47 C497.25,162.22 493.05,161.89 485.13,162.18 C475.50,162.53 473.87,162.88 467.78,165.91 C456.35,171.59 445.92,183.62 440.94,196.85 C429.95,226.13 437.54,267.05 460.09,300.03 C463.30,304.72 466.62,310.24 467.48,312.29 C470.16,318.72 467.50,324.44 461.29,325.61 C456.85,326.44 455.08,325.55 445.86,317.87 C431.91,306.23 414.94,297.47 397.43,292.87 C389.84,290.88 386.18,290.54 373.00,290.58 C358.98,290.63 356.73,290.89 349.50,293.29 C321.22,302.68 304.29,327.26 307.95,353.61 C309.82,367.04 315.46,377.57 326.11,387.50 C341.44,401.79 362.60,410.40 389.14,413.14 C403.34,414.60 414.00,413.46 428.87,408.88 C440.83,405.21 443.37,405.21 447.08,408.92 C453.40,415.24 450.11,421.17 435.70,429.40 C412.40,442.72 396.66,457.25 388.67,472.84 C383.80,482.34 382.00,489.07 382.00,497.84 C382.00,522.02 401.02,542.30 427.50,546.36 C432.95,547.20 447.37,545.98 455.14,544.03 ZM 518.97 452.93 C498.85,451.20 478.98,440.22 466.40,423.87 C444.84,395.85 447.96,356.47 473.74,331.22 C479.74,325.36 483.14,323.00 491.34,319.07 C496.93,316.38 503.98,313.58 507.00,312.85 C515.33,310.82 536.12,311.10 543.50,313.34 C559.24,318.11 569.02,324.10 580.18,335.79 C593.00,349.21 599.19,364.78 599.17,383.50 C599.15,402.04 592.54,417.65 579.04,431.00 C567.26,442.66 550.63,451.23 537.20,452.56 C534.06,452.87 530.60,453.25 529.50,453.40 C528.40,453.55 523.66,453.34 518.97,452.93 ZM 534.00 429.96 C555.13,426.63 572.84,409.67 576.30,389.45 C581.69,358.01 550.39,328.88 516.67,333.95 C502.91,336.02 488.56,345.54 481.78,357.12 C476.64,365.89 474.76,373.54 475.17,384.01 C475.51,392.49 475.95,394.37 479.25,401.31 C485.91,415.34 498.72,425.80 513.64,429.42 C520.85,431.16 525.59,431.29 534.00,429.96 Z" fill="#1d1d1f"></path>
    </g>
  </svg>

  <!-- 4 target dots on bottom-right -->
  <g stroke="#1d1d1f" fill="none" stroke-width="0.52" opacity="0.35">
    <circle cx="72" cy="123" r="1.5" stroke-width="0.72"></circle>
    <circle cx="72" cy="123" r="0.55" fill="#1d1d1f" opacity="0.3" stroke-width="0"></circle>
    <circle cx="78" cy="123" r="1.5" stroke-width="0.72"></circle>
    <circle cx="78" cy="123" r="0.55" fill="#1d1d1f" opacity="0.3" stroke-width="0"></circle>
    <circle cx="84" cy="123" r="1.5" stroke-width="0.72"></circle>
    <circle cx="84" cy="123" r="0.55" fill="#1d1d1f" opacity="0.3" stroke-width="0"></circle>
    <circle cx="90" cy="123" r="1.5" stroke-width="0.72"></circle>
    <circle cx="90" cy="123" r="0.55" fill="#1d1d1f" opacity="0.3" stroke-width="0"></circle>
  </g>
</svg>
